<svg width="146" height="122" viewBox="0 0 146 122" fill="none" xmlns="http://www.w3.org/2000/svg">
    <path d="M29.433 83.2238C30.3064 83.2238 31.1798 82.8568 31.6893 82.5633L31.5437 81.1688C31.0342 81.4624 30.5975 81.6826 29.9425 81.6826C29.1419 81.6826 28.7052 81.3156 28.7052 79.9212V64.3623H27.0312V80.3615C27.0312 82.4165 27.8318 83.2238 29.433 83.2238Z" fill="white"/>
    <path d="M37.5116 83.2238C39.1856 83.2238 40.6412 82.4165 41.5146 81.3157C41.733 82.6367 42.3152 83.2238 43.5525 83.2238C44.2803 83.2238 45.0809 82.9303 45.5176 82.5633L45.372 81.1689C44.9354 81.5358 44.4987 81.756 44.1348 81.756C43.4069 81.756 43.1158 81.0955 43.1158 80.068V69.2062H41.4418V70.674C40.5685 69.5731 39.04 68.9126 37.6572 68.9126C34.0909 68.9126 31.9802 71.6281 31.9802 76.0315C31.9074 80.5817 34.1637 83.2238 37.5116 83.2238ZM37.9483 70.5272C39.404 70.5272 40.6412 71.4813 41.3691 72.362V79.7744C40.714 80.6551 39.4767 81.6826 37.9483 81.6826C35.2554 81.6826 33.5814 79.6277 33.5814 76.1783C33.5814 72.6555 35.3282 70.5272 37.9483 70.5272Z" fill="white"/>
    <path d="M46.7549 64.3623V82.9302H48.4289V81.4624C49.3022 82.4899 50.6123 83.2238 52.3591 83.2238C55.707 83.2238 57.8905 80.5817 57.8905 76.1049C57.8905 71.628 55.707 69.0593 52.3591 69.0593C50.6851 69.0593 49.3022 69.7932 48.4289 70.8207V64.4357H46.7549V64.3623ZM51.8496 70.5271C54.5425 70.5271 56.2165 72.6555 56.2165 76.1049C56.2165 79.5542 54.5425 81.6092 51.8496 81.6092C50.394 81.6092 49.0839 80.7285 48.4289 79.8478V72.3619C49.0839 71.4078 50.394 70.5271 51.8496 70.5271Z" fill="white"/>
    <path d="M38.385 101.131C37.6572 101.131 37.3661 100.471 37.3661 99.4433V88.6549H35.6921V90.1227C34.8187 89.0218 33.2903 88.3613 31.9074 88.3613C28.3411 88.3613 26.2305 91.0768 26.2305 95.4802C26.2305 99.8837 28.4139 102.526 31.8347 102.526C33.5086 102.526 34.9643 101.718 35.8376 100.618C36.056 101.939 36.6382 102.526 37.8755 102.526C38.6034 102.526 39.4039 102.232 39.8406 101.865L39.6951 100.471C39.2584 100.911 38.8217 101.131 38.385 101.131ZM35.6921 99.2232C35.037 100.104 33.7998 101.131 32.2713 101.131C29.5784 101.131 27.9044 99.0764 27.9044 95.627C27.9044 92.1777 29.5784 90.0493 32.2713 90.0493C33.727 90.0493 34.9643 91.0034 35.6921 91.8841V99.2232Z" fill="white"/>
    <path d="M52.3593 101.131C51.6315 101.131 51.3403 100.764 51.3403 99.7368V93.7921C51.3403 90.4161 49.8847 88.4346 46.9734 88.4346C45.0083 88.4346 43.5527 89.3153 42.7521 90.8565V88.6547H41.0781V102.379H42.7521V93.2784C43.1888 91.517 44.4989 90.0492 46.3912 90.0492C48.5746 90.0492 49.6664 91.517 49.6664 94.0857V100.104C49.6664 101.865 50.3942 102.599 51.8498 102.599C52.6504 102.599 53.3782 102.305 53.8149 101.939L53.6694 100.544C53.1599 100.911 52.796 101.131 52.3593 101.131Z" fill="white"/>
    <path d="M66.26 101.131C65.5322 101.131 65.2411 100.471 65.2411 99.4433V88.6549H63.5671V90.1227C62.6937 89.0218 61.1653 88.3613 59.7824 88.3613C56.2161 88.3613 54.1055 91.0768 54.1055 95.4802C54.1055 99.8837 56.2889 102.526 59.7097 102.526C61.3836 102.526 62.8393 101.718 63.7126 100.618C63.931 101.939 64.5132 102.526 65.7505 102.526C66.4783 102.526 67.2789 102.232 67.7156 101.865L67.5701 100.471C67.0606 100.911 66.6967 101.131 66.26 101.131ZM63.4943 99.2232C62.8393 100.104 61.602 101.131 60.0736 101.131C57.3806 101.131 55.7067 99.0764 55.7067 95.627C55.7067 92.1777 57.3806 90.0493 60.0736 90.0493C61.5292 90.0493 62.7665 91.0034 63.4943 91.8841V99.2232Z" fill="white"/>
    <path d="M73.3205 100.618C72.8838 100.911 72.4472 101.131 71.7921 101.131C70.9915 101.131 70.5548 100.764 70.5548 99.3701V83.7378H68.8809V99.737C68.8809 101.865 69.7542 102.599 71.2827 102.599C72.156 102.599 73.0294 102.232 73.5389 101.939L73.3205 100.618Z" fill="white"/>
    <path d="M89.8416 101.131C88.4587 101.131 87.7309 100.397 87.7309 98.636V90.1226H92.4617V88.7282H87.7309V85.2788H86.348L86.2025 88.7282H84.6741H83.8735H82.9273L78.9243 100.544L74.4846 88.7282H72.5923L78.1237 102.306L77.7598 103.406C77.1776 105.168 76.5225 106.122 75.0669 106.122C74.0479 106.122 73.3929 105.828 72.8107 105.461L72.5195 106.782C73.1018 107.149 73.9752 107.59 75.1397 107.59C77.3959 107.59 78.4148 106.122 79.2882 103.773L84.1646 90.1226H86.1297V98.8561C86.1297 101.572 87.5126 102.672 89.5504 102.672C91.0061 102.672 92.1706 102.159 93.1167 101.498L92.6073 100.104C91.8795 100.618 90.7149 101.131 89.8416 101.131Z" fill="white"/>
    <path d="M96.4648 84.8385L104.616 80.1415C104.835 80.3617 105.053 80.5084 105.417 80.5084C105.999 80.5084 106.436 80.0681 106.436 79.481C106.436 79.114 106.29 78.8204 105.999 78.6003L112.841 55.9959C112.913 55.9959 112.913 55.9959 112.986 55.9959C113.568 55.9959 114.005 55.5555 114.005 54.9684C114.005 54.3813 113.568 53.9409 112.986 53.9409H112.913L95.8097 15.7776C96.1009 15.5575 96.2464 15.2639 96.2464 14.9703C96.2464 14.3832 95.8097 13.9429 95.2275 13.9429C94.6452 13.9429 94.2086 14.3832 94.2086 14.9703C94.2086 15.4107 94.4269 15.7043 94.7908 15.9244L86.5665 68.9861C86.2754 68.9861 85.9842 69.2062 85.8387 69.4264L46.1727 55.9225V55.8491C46.1727 55.262 45.736 54.8216 45.1537 54.8216C44.5715 54.8216 44.1348 55.262 44.1348 55.8491C44.1348 56.4362 44.5715 56.8766 45.1537 56.8766C45.4448 56.8766 45.6632 56.7298 45.8815 56.583L94.1358 84.7651C94.1358 85.6458 94.6452 85.9394 95.3003 85.9394C95.9553 85.9394 96.392 85.6458 96.4648 84.8385ZM105.344 78.4535C104.762 78.4535 104.325 78.8938 104.325 79.481C104.325 79.5544 104.325 79.6277 104.325 79.7011L96.392 84.3248C96.392 84.2514 96.3192 84.1046 96.3192 84.0312L112.04 56.6564L105.49 78.4535C105.417 78.4535 105.344 78.4535 105.344 78.4535ZM87.0759 69.0595L94.9364 17.9794L95.1547 83.5909C95.0091 83.5909 94.9364 83.6643 94.7908 83.6643L90.4239 75.9582L87.3671 70.7474C87.5854 70.5273 87.6582 70.3071 87.6582 70.0135C87.6582 69.5732 87.4399 69.2062 87.0759 69.0595ZM94.3541 83.9578C94.2813 84.0312 94.2086 84.178 94.2086 84.2514L49.0839 57.904L89.9872 76.3252L94.3541 83.9578ZM111.822 54.9684C111.822 55.1886 111.895 55.4821 112.04 55.6289L95.9553 83.7376C95.8825 83.6642 95.737 83.6643 95.5914 83.6643L95.3731 16.0712L112.258 54.1611C111.967 54.3079 111.822 54.6748 111.822 54.9684ZM86.6393 71.041C86.712 71.041 86.8576 71.041 86.9304 70.9676L89.5505 75.5912L49.739 57.6839L85.6203 69.8668C85.6203 69.9401 85.6203 69.9401 85.6203 70.0135C85.6931 70.5273 86.1298 71.041 86.6393 71.041Z" fill="white"/>
    <path d="M97.1192 101.131C96.4641 101.131 96.173 100.764 96.173 99.7368V88.6548H94.499V100.104C94.499 101.865 95.2268 102.599 96.6097 102.599C97.4103 102.599 98.1381 102.306 98.5748 101.939L98.4292 100.544C97.9925 100.911 97.6286 101.131 97.1192 101.131Z" fill="white"/>
    <path d="M105.271 89.8293C107.528 89.8293 108.692 91.1503 108.838 93.4988L110.221 93.0585C109.929 90.1963 108.328 88.2881 105.126 88.2881C101.414 88.2881 99.085 91.2971 99.085 95.5538C99.085 99.7371 100.905 102.746 105.271 102.746C107.164 102.746 108.838 102.012 110.075 100.838L109.347 99.4435C108.255 100.398 106.873 101.205 105.417 101.205C102.069 101.205 100.759 98.8564 100.759 95.5538C100.832 92.1778 102.506 89.8293 105.271 89.8293Z" fill="white"/>
    <path d="M117.353 95.1864L115.024 94.5259C113.569 94.0855 112.914 93.6452 112.914 92.5443C112.914 91.0031 114.005 89.9756 116.043 89.9756C117.353 89.9756 118.736 90.416 119.682 90.9297L120.119 89.4619C119.246 89.0216 117.426 88.5078 115.971 88.5078C112.987 88.5078 111.167 90.2692 111.167 92.5443C111.167 94.3791 112.186 95.3332 114.078 95.8469L116.407 96.5074C117.645 96.8744 118.518 97.3147 118.518 98.6357C118.518 100.03 117.499 101.204 115.607 101.204C113.933 101.204 112.623 100.544 111.749 100.03L111.385 101.571C112.259 102.085 113.86 102.672 115.679 102.672C118.591 102.672 120.192 100.837 120.192 98.5624C120.265 96.6542 119.173 95.7001 117.353 95.1864Z" fill="white"/>
</svg>